Coordinates
version=1
nRows=22
nColumns=21
inDegrees=yes

Units are S.I. units (second, meters, Newtons, ...)
If the header above contains a line with 'inDegrees', this indicates whether rotational values are in degrees (yes) or radians (no).

endheader
time	sternoclavicular_r2	sternoclavicular_r3	unrotscap_r3	unrotscap_r2	acromioclavicular_r2	acromioclavicular_r3	acromioclavicular_r1	unrothum_r1	unrothum_r3	unrothum_r2	elv_angle	shoulder_elev	shoulder1_r2	shoulder_rot	elbow_flexion	pro_sup	deviation	flexion	wrist_hand_r1	wrist_hand_r3
      0.00000000	    -39.58287063	     16.76543579	    -16.76543579	     39.58287063	     -8.01472612	     64.77219731	     29.11465691	    -29.11465691	    -64.77219731	      8.01472612	    120.04177322	    163.56521450	   -120.04177322	    -83.70195846	      0.01789720	      0.00000000	      0.00000000	     -0.00000000	     -0.00000000	      0.00000000
      0.02010050	    -39.58286664	     16.76543410	    -16.76543410	     39.58286664	     -8.01472532	     64.77219079	     29.11465398	    -29.11465398	    -64.77219079	      8.01472532	    120.04440074	    163.56519804	   -120.04440074	    -83.69090539	      0.01789308	      0.00000000	      0.00000000	     -0.00000000	     -0.00000000	      0.00000000
      0.04020101	    -39.58285375	     16.76542864	    -16.76542864	     39.58285375	     -8.01472271	     64.77216970	     29.11464450	    -29.11464450	    -64.77216970	      8.01472271	    120.04688063	    163.56514477	   -120.04688063	    -83.68042305	      0.01788921	      0.00000000	      0.00000000	     -0.00000000	     -0.00000000	      0.00000000
      0.06030151	    -39.58280511	     16.76540804	    -16.76540804	     39.58280511	     -8.01471286	     64.77209010	     29.11460872	    -29.11460872	    -64.77209010	      8.01471286	    120.04918596	    163.56494377	   -120.04918596	    -83.67047886	      0.01788566	      0.00000000	      0.00000000	     -0.00000000	     -0.00000000	      0.00000000
      0.08040201	    -39.58268570	     16.76535746	    -16.76535746	     39.58268570	     -8.01468868	     64.77189470	     29.11452089	    -29.11452089	    -64.77189470	      8.01468868	    120.05127880	    163.56445035	   -120.05127880	    -83.66104281	      0.01788256	      0.00000000	      0.00000000	     -0.00000000	     -0.00000000	      0.00000000
      0.10050251	    -39.58246159	     16.76526254	    -16.76526254	     39.58246159	     -8.01464330	     64.77152797	     29.11435605	    -29.11435605	    -64.77152797	      8.01464330	    120.05312178	    163.56352426	   -120.05312178	    -83.65208830	      0.01788002	      0.00000000	      0.00000000	     -0.00000000	     -0.00000000	      0.00000000
      0.12060302	    -39.58209988	     16.76510934	    -16.76510934	     39.58209988	     -8.01457006	     64.77093608	     29.11409000	    -29.11409000	    -64.77093608	      8.01457006	    120.05467809	    163.56202960	   -120.05467809	    -83.64359187	      0.01787815	      0.00000000	      0.00000000	     -0.00000000	     -0.00000000	      0.00000000
      0.14070352	    -39.58156870	     16.76488435	    -16.76488435	     39.58156870	     -8.01446251	     64.77006688	     29.11369930	    -29.11369930	    -64.77006688	      8.01446251	    120.05591152	    163.55983467	   -120.05591152	    -83.63553302	      0.01787705	      0.00000000	      0.00000000	     -0.00000000	     -0.00000000	      0.00000000
      0.16080402	    -39.58083720	     16.76457452	    -16.76457452	     39.58083720	     -8.01431440	     64.76886986	     29.11316125	    -29.11316125	    -64.76886986	      8.01431440	    120.05678645	    163.55681191	   -120.05678645	    -83.62789412	      0.01787684	      0.00000000	      0.00000000	     -0.00000000	     -0.00000000	      0.00000000
      0.18090452	    -39.57987544	     16.76416717	    -16.76416717	     39.57987544	     -8.01411966	     64.76729608	     29.11245385	    -29.11245385	    -64.76729608	      8.01411966	    120.05726788	    163.55283774	   -120.05726788	    -83.62066030	      0.01787762	      0.00000000	      0.00000000	     -0.00000000	     -0.00000000	      0.00000000
      0.20100503	    -39.57865447	     16.76365002	    -16.76365002	     39.57865447	     -8.01387244	     64.76529811	     29.11155577	    -29.11155577	    -64.76529811	      8.01387244	    120.05732143	    163.54779239	   -120.05732143	    -83.61381938	      0.01787948	      0.00000000	      0.00000000	     -0.00000000	     -0.00000000	      0.00000000
      0.22110553	    -39.57714617	     16.76301118	    -16.76301118	     39.57714617	     -8.01356704	     64.76282999	     29.11044637	    -29.11044637	    -64.76282999	      8.01356704	    120.05691331	    163.54155978	   -120.05691331	    -83.60736195	      0.01788254	      0.00000000	      0.00000000	     -0.00000000	     -0.00000000	      0.00000000
      0.24120603	    -39.57532332	     16.76223910	    -16.76223910	     39.57532332	     -8.01319795	     64.75984712	     29.10910559	    -29.10910559	    -64.75984712	      8.01319795	    120.05601035	    163.53402734	   -120.05601035	    -83.60128139	      0.01788687	      0.00000000	      0.00000000	     -0.00000000	     -0.00000000	      0.00000000
      0.26130653	    -39.57315946	     16.76132260	    -16.76132260	     39.57315946	     -8.01275981	     64.75630625	     29.10751399	    -29.10751399	    -64.75630625	      8.01275981	    120.05457994	    163.52508581	   -120.05457994	    -83.59557407	      0.01789260	      0.00000000	      0.00000000	     -0.00000000	     -0.00000000	      0.00000000
      0.28140704	    -39.57062894	     16.76025079	    -16.76025079	     39.57062894	     -8.01224743	     64.75216539	     29.10565270	    -29.10565270	    -64.75216539	      8.01224743	    120.05259005	    163.51462913	   -120.05259005	    -83.59023954	      0.01789980	      0.00000000	      0.00000000	     -0.00000000	     -0.00000000	      0.00000000
      0.30150754	    -39.56770680	     16.75901311	    -16.75901311	     39.56770680	     -8.01165576	     64.74738369	     29.10350336	    -29.10350336	    -64.74738369	      8.01165576	    120.05000905	    163.50255421	   -120.05000905	    -83.58528094	      0.01790858	      0.00000000	      0.00000000	     -0.00000000	     -0.00000000	      0.00000000
      0.32160804	    -39.56436874	     16.75759926	    -16.75759926	     39.56436874	     -8.01097987	     64.74192139	     29.10104810	    -29.10104810	    -64.74192139	      8.01097987	    120.04681986	    163.48876060	   -120.04681986	    -83.58064849	      0.01791901	      0.00000000	      0.00000000	     -0.00000000	     -0.00000000	      0.00000000
      0.34170854	    -39.56059120	     16.75599928	    -16.75599928	     39.56059120	     -8.01021499	     64.73573994	     29.09826958	    -29.09826958	    -64.73573994	      8.01021499	    120.04296681	    163.47315097	   -120.04296681	    -83.57644946	      0.01793121	      0.00000000	      0.00000000	     -0.00000000	     -0.00000000	      0.00000000
      0.36180905	    -39.55635109	     16.75420336	    -16.75420336	     39.55635109	     -8.00935646	     64.72880155	     29.09515082	    -29.09515082	    -64.72880155	      8.00935646	    120.03842389	    163.45562988	   -120.03842389	    -83.57268421	      0.01794528	      0.00000000	      0.00000000	     -0.00000000	     -0.00000000	      0.00000000
      0.38190955	    -39.55162584	     16.75220197	    -16.75220197	     39.55162584	     -8.00839969	     64.72106930	     29.09167522	    -29.09167522	    -64.72106930	      8.00839969	    120.03316466	    163.43610410	   -120.03316466	    -83.56935406	      0.01796130	      0.00000000	      0.00000000	     -0.00000000	     -0.00000000	      0.00000000
      0.40201005	    -39.54639330	     16.74998571	    -16.74998571	     39.54639330	     -8.00734021	     64.71250692	     29.08782649	    -29.08782649	    -64.71250692	      8.00734021	    120.02715611	    163.41448206	   -120.02715611	    -83.56649127	      0.01797936	      0.00000000	      0.00000000	     -0.00000000	     -0.00000000	      0.00000000
      0.42211055	    -39.54063144	     16.74754526	    -16.74754526	     39.54063144	     -8.00617355	     64.70307840	     29.08358844	    -29.08358844	    -64.70307840	      8.00617355	    120.02036386	    163.39067280	   -120.02036386	    -83.56414410	      0.01799957	      0.00000000	      0.00000000	     -0.00000000	     -0.00000000	      0.00000000
